<svg xmlns="http://www.w3.org/2000/svg" viewBox="0 0 465.05 485.05"><defs><style>.cls-1{fill:#252d60;}.cls-2{fill:#4955a5;}.cls-3{fill:none;stroke:#231f20;stroke-linejoin:round;stroke-width:15px;}</style></defs><title>Hat Button</title><g id="Layer_2" data-name="Layer 2"><g id="Screen_04" data-name="Screen 04"><circle class="cls-1" cx="232.53" cy="252.53" r="232.53"/><circle class="cls-2" cx="232.53" cy="232.53" r="232.53"/><path class="cls-3" d="M318.59,246.36l-8.72-46.94A18.28,18.28,0,0,0,300,186.36c-28-13.8-121-52.47-189.41,4.34,0,0-45.23,37.89-35.54,104.11,0,0,60.73,25.52,111.77,16.8C186.8,311.61,267.88,249.27,318.59,246.36Z"/><path class="cls-3" d="M318.59,246.36s45.49,3.76,69.92,15.14c5,2.34,3,9.91-2.53,9.52-21-1.5-56.72-1.08-74.5,16-15.55,15-33.84,25.39-46.12,31.37a58.76,58.76,0,0,1-29.21,5.86c-14-.83-34.64-3.65-49.35-12.68"/></g></g></svg>