<svg xmlns="http://www.w3.org/2000/svg" xmlns:xlink="http://www.w3.org/1999/xlink" viewBox="0 0 1082.31 1098.86"><defs><style>.cls-1,.cls-2,.cls-3,.cls-5{fill:none;}.cls-1,.cls-2{stroke:#fff200;}.cls-1,.cls-2,.cls-3,.cls-4,.cls-5{stroke-linecap:round;stroke-linejoin:round;}.cls-1,.cls-3,.cls-4{stroke-width:20px;}.cls-2,.cls-5{stroke-width:25px;}.cls-3{stroke:#ed1c24;}.cls-13,.cls-4{fill:#00aeef;}.cls-4{stroke:#231f20;}.cls-5{stroke:#6dcff6;}.cls-6{font-size:158px;font-family:Montserrat-ExtraBold, Montserrat;font-weight:700;}.cls-11,.cls-6{fill:#231f20;}.cls-7{letter-spacing:-0.01em;}.cls-8{letter-spacing:-0.02em;}.cls-9{letter-spacing:-0.01em;}.cls-10{fill:url(#linear-gradient);}.cls-12{fill:#e64725;}</style><linearGradient id="linear-gradient" x1="545.06" y1="1095.88" x2="545.06" y2="980.85" gradientUnits="userSpaceOnUse"><stop offset="0" stop-color="#211e71"/><stop offset="0.05" stop-color="#191756" stop-opacity="0.98"/><stop offset="0.12" stop-color="#11103b" stop-opacity="0.95"/><stop offset="0.2" stop-color="#0b0a25" stop-opacity="0.93"/><stop offset="0.29" stop-color="#060514" stop-opacity="0.92"/><stop offset="0.4" stop-color="#030209" stop-opacity="0.91"/><stop offset="0.56" stop-color="#010002" stop-opacity="0.9"/><stop offset="1" stop-opacity="0.9"/></linearGradient></defs><title>Logo</title><g id="Layer_2" data-name="Layer 2"><g id="Screen_01" data-name="Screen 01"><path class="cls-1" d="M178.61,371H467.14c24.66,0,37.55,29.3,20.9,47.48l-54,59h0c53.86,0,97.52,53,97.52,106.85V690.81c0,75.42-61.14,106-136.56,106H212.16A168.23,168.23,0,0,1,43.94,628.58h0a44.67,44.67,0,0,1,44.67-44.67h9.75a43.1,43.1,0,0,1,43.1,43.1v1.35a61.84,61.84,0,0,0,61.78,62h150.3c44.44,0,42.29-36,42.29-80.48h0c0-44.45,2.15-80.49-42.3-80.49h-65.8l48.76-51.95H178.61a53.23,53.23,0,0,1-53.23-53.23h0A53.23,53.23,0,0,1,178.61,371Z"/><path class="cls-1" d="M852,371H644a66.65,66.65,0,0,0-66.65,66.65V730.17A66.65,66.65,0,0,0,644,796.83H852c117.59,0,212.92-95.33,212.92-212.92h0C1064.94,466.32,969.61,371,852,371Zm46.27,208.38c0,44.67-37.71,80.88-84.22,80.88h-55c-8.33,0-15.07-6.48-15.07-14.48V513c0-8,6.74-14.48,15.07-14.48h55c46.51,0,84.22,36.22,84.22,80.89Z"/><path class="cls-2" d="M730.92,404.93H674.39c-18.31,0-33.16,12.64-33.16,28.23V494.6"/><line class="cls-2" x1="231.39" y1="404.93" x2="181.59" y2="404.93"/><path class="cls-2" d="M72.53,624.77A22.17,22.17,0,0,1,90.93,615h2.89a22.13,22.13,0,0,1,14.05,5"/><line class="cls-2" x1="641.23" y1="533.94" x2="641.23" y2="562.67"/><line class="cls-2" x1="265.32" y1="404.93" x2="274.31" y2="404.93"/><path class="cls-3" d="M144.68,371.67H433.21c24.65,0,37.55,29.3,20.89,47.48l-54,59h0c53.85,0,97.52,53,97.52,106.85V691.49c0,75.42-61.15,106-136.57,106H178.23A168.23,168.23,0,0,1,10,629.27h0a44.67,44.67,0,0,1,44.68-44.68h9.74a43.1,43.1,0,0,1,43.1,43.1V629a61.83,61.83,0,0,0,61.78,62H319.6c44.45,0,42.3-36,42.3-80.47h0c0-44.45,2.14-80.48-42.31-80.48H253.8l48.76-52H144.68A53.23,53.23,0,0,1,91.45,424.9h0A53.23,53.23,0,0,1,144.68,371.67Z"/><path class="cls-3" d="M818.09,371.67h-208a66.65,66.65,0,0,0-66.65,66.66V730.86a66.65,66.65,0,0,0,66.65,66.65h208c117.59,0,212.91-95.33,212.91-212.92h0C1031,467,935.68,371.67,818.09,371.67Zm46.26,208.38c0,44.67-37.7,80.88-84.22,80.88h-55c-8.32,0-15.07-6.48-15.07-14.47V513.64c0-8,6.75-14.47,15.07-14.47h55c46.52,0,84.22,36.21,84.22,80.88Z"/><path class="cls-3" d="M697,405.61H640.46c-18.32,0-33.17,12.64-33.17,28.23v61.45"/><line class="cls-3" x1="197.45" y1="405.61" x2="147.65" y2="405.61"/><path class="cls-3" d="M38.6,625.45A22.13,22.13,0,0,1,57,615.68h2.9a22,22,0,0,1,14,5"/><line class="cls-3" x1="607.29" y1="534.63" x2="607.29" y2="563.35"/><line class="cls-3" x1="231.39" y1="405.61" x2="240.37" y2="405.61"/><path class="cls-4" d="M161.65,370.22H450.18c24.65,0,37.54,29.3,20.89,47.48l-54,59h0c53.86,0,97.52,53,97.52,106.85V690c0,75.42-61.14,106-136.56,106H195.2A168.23,168.23,0,0,1,27,627.81h0a44.67,44.67,0,0,1,44.68-44.67h9.74a43.1,43.1,0,0,1,43.1,43.1v1.35a61.83,61.83,0,0,0,61.78,62h150.3c44.45,0,42.29-36,42.3-80.47h0c0-44.45,2.14-80.48-42.31-80.48H270.77l48.76-52H161.65a53.23,53.23,0,0,1-53.23-53.23h0A53.23,53.23,0,0,1,161.65,370.22Z"/><path class="cls-4" d="M835.05,370.22H627a66.65,66.65,0,0,0-66.65,66.65V729.41A66.65,66.65,0,0,0,627,796.06h208c117.6,0,212.92-95.33,212.92-212.92h0C1048,465.55,952.65,370.22,835.05,370.22ZM881.32,578.6c0,44.67-37.7,80.88-84.22,80.88h-55C733.78,659.48,727,653,727,645V512.19c0-8,6.75-14.47,15.07-14.47h55c46.52,0,84.22,36.21,84.22,80.88Z"/><path class="cls-5" d="M714,404.16H657.42c-18.31,0-33.16,12.64-33.16,28.23v61.45"/><line class="cls-5" x1="214.42" y1="404.16" x2="164.62" y2="404.16"/><path class="cls-5" d="M55.57,624A22.14,22.14,0,0,1,74,614.22h2.9a22.12,22.12,0,0,1,14,5"/><line class="cls-5" x1="624.26" y1="533.18" x2="624.26" y2="561.9"/><line class="cls-5" x1="248.36" y1="404.16" x2="257.34" y2="404.16"/><text class="cls-6" transform="translate(9.6 957.03)"><tspan class="cls-7">E</tspan><tspan class="cls-8" x="105.23" y="0">X</tspan><tspan class="cls-9" x="218.36" y="0">P</tspan><tspan x="333.22" y="0">ERIENCE</tspan></text><path class="cls-10" d="M109.46,932.86V957H20.66V846.43H107.4v24.18H51.63v18.64h49.14v23.38H51.63v20.23Z"/><path class="cls-10" d="M195.72,957l-22.91-34.28L150.22,957H114.51L154.8,901.1l-38.55-54.67h35.23l22.12,31.92,21.81-31.92h33.81l-38.55,53.41L231.75,957Z"/><path class="cls-10" d="M315.65,851.41a38.68,38.68,0,0,1,17.06,14.22q6,9.24,6,21.72t-6,21.65a38.85,38.85,0,0,1-17.06,14.14q-11.07,5-26.07,5H270.3V957H239V846.43h50.56Q304.58,846.43,315.65,851.41Zm-13.43,47.87q4.89-4.18,4.9-11.93t-4.9-12q-4.91-4.27-14.54-4.27H270.3v32.39h17.38Q297.31,903.47,302.22,899.28Z"/><path class="cls-10" d="M442.68,932.86V957h-88.8V846.43h86.75v24.18H384.85v18.64H434v23.38H384.85v20.23Z"/><path class="cls-10" d="M508.41,927.64H491.34V957H460.06V846.43h50.56q15,0,26.07,5a40.23,40.23,0,0,1,17.46,56.88,38,38,0,0,1-16,14L562,957h-33.5Zm14.85-52.29q-4.9-4.27-14.54-4.27H491.34v32.39h17.38q9.64,0,14.54-4.19t4.9-11.93Q528.16,879.61,523.26,875.35Z"/><path class="cls-10" d="M577,846.43h31.28V957H577Z"/><path class="cls-10" d="M719.33,932.86V957H630.54V846.43h86.74v24.18H661.51v18.64h49.13v23.38H661.51v20.23Z"/><path class="cls-10" d="M841.94,846.43V957H816.19L767.37,898.1V957H736.71V846.43h25.76l48.82,58.94V846.43Z"/><path class="cls-10" d="M888,951.9a55,55,0,0,1-21.73-20.46,59.8,59.8,0,0,1,0-59.41A54.91,54.91,0,0,1,888,851.57a65.41,65.41,0,0,1,31.2-7.35,67,67,0,0,1,27.34,5.37,52.58,52.58,0,0,1,20.22,15.49l-19.91,18q-10.74-13-26.07-13a32.17,32.17,0,0,0-16,4,27.47,27.47,0,0,0-10.91,11.14,37.15,37.15,0,0,0,0,33,27.35,27.35,0,0,0,10.91,11.14,32.07,32.07,0,0,0,16,4q15.33,0,26.07-13l19.91,18a52.56,52.56,0,0,1-20.22,15.48,67,67,0,0,1-27.34,5.37A65.52,65.52,0,0,1,888,951.9Z"/><path class="cls-10" d="M1069.46,932.86V957h-88.8V846.43h86.75v24.18h-55.78v18.64h49.14v23.38h-49.14v20.23Z"/><polygon class="cls-11" points="9.6 0 87.37 0 87.37 135.76 155.02 56.76 242.31 56.76 161 160.68 161 160.39 242.15 319.38 157.47 319.38 107.77 223.04 87.22 247.59 87.22 319.38 9.6 319.38 9.6 0"/><rect class="cls-12" x="243.34" y="56.76" width="71.87" height="64.16"/><rect class="cls-12" x="243.34" y="125.19" width="71.87" height="194.18"/><rect class="cls-12" x="961.4" y="125.19" width="65.74" height="194.18"/><path class="cls-12" d="M324.4,125.19h65.11v9.44S502,86,512.32,182v137.4H445V199.18c0-10.29-.26-18.16-8.23-24.67-7.53-6.16-20.88-10.55-34.54.75-6,5-8.36,12.52-8.36,20.36l-1,123.76H324.4Z"/><path class="cls-12" d="M671.53,56.76,672,138.3c-26.46-22-60-18.23-66.84-17.19-1,.16-2,.28-3,.38-72.61,7.31-80.7,83.32-80.7,83.32s-11,67.88,43.79,102.18,109.26,0,109.26,0v12.93h65.89V56.76ZM628.4,276.21c-24,0-41.4-23.27-41.4-54.52s17.39-54.51,41.4-54.51,40.37,23.26,40.37,54.51S652.4,276.21,628.4,276.21Z"/><path class="cls-12" d="M957.68,214.26s-2.26-96.55-108.07-95.48c0,0-110.16,2.73-100.07,123.74,0,0,12.49,79.94,104.26,80.74s97.47-66.49,97.47-66.49H883.81s-4.51,27.91-45.36,16.39c0,0-20.23-6.89-20.11-30.64H957.68Zm-140.4-15.32c6.49-28.7,32.19-30.38,32.19-30.38,44.39-3.63,42.15,30.38,42.15,30.38Z"/><path class="cls-12" d="M1027.14,140.18s20.48-23.51,55.17-17.87v55.57s-47.15-7.82-55.17,28.48Z"/><path class="cls-13" d="M798.51,1098.86c3.22,0,3.22-5,0-5s-3.22,5,0,5Z"/></g></g></svg>