<svg xmlns="http://www.w3.org/2000/svg" viewBox="0 0 729.04 871.56"><defs><style>.cls-1{fill:#e4daec;}.cls-1,.cls-2,.cls-3,.cls-5,.cls-6{stroke:#231f20;stroke-miterlimit:10;stroke-width:8px;}.cls-2{fill:#ccb9da;}.cls-3,.cls-7{fill:#fff;}.cls-4{fill:#cecbe6;}.cls-5{fill:#b99cca;}.cls-6{fill:#eee0ee;}</style></defs><title>Robot Illus</title><g id="Layer_2" data-name="Layer 2"><g id="Screen_03" data-name="Screen 03"><rect class="cls-1" x="125.11" y="4" width="503.94" height="315.62" rx="12" ry="12"/><polyline class="cls-1" points="76.4 712.96 76.4 867.56 202.25 867.56 202.25 712.96"/><polyline class="cls-1" points="500.24 709.97 500.24 864.58 626.08 864.58 626.08 709.97"/><circle class="cls-2" cx="229.06" cy="84.68" r="40.41"/><circle class="cls-2" cx="413.84" cy="84.68" r="40.41"/><path class="cls-3" d="M247.79,161.45a78.9,78.9,0,1,0,157.8,0Z"/><line class="cls-1" x1="298.84" y1="161.45" x2="298.84" y2="235.28"/><rect class="cls-4" x="81.64" y="712.96" width="115.06" height="25.36"/><line class="cls-1" x1="362.98" y1="161.45" x2="362.98" y2="231.52"/><path class="cls-2" d="M529.49,161.18h41.82a20.53,20.53,0,0,0,20.53-20.53V84.21a20.53,20.53,0,0,0-20.53-20.53H529.49Z"/><rect class="cls-4" x="505.63" y="712.96" width="115.06" height="25.36"/><line class="cls-1" x1="305.33" y1="258.3" x2="362.98" y2="258.3"/><rect class="cls-1" x="4" y="319.62" width="721.04" height="393.33" rx="10.22" ry="10.22"/><polyline class="cls-3" points="578.02 634.82 578.02 660.39 629.05 660.39 629.05 634.82"/><rect class="cls-5" x="130.07" y="477.22" width="144.37" height="157.6" rx="17.88" ry="17.88"/><rect class="cls-5" x="130.07" y="380.38" width="144.37" height="71.72" rx="23.24" ry="23.24"/><rect class="cls-6" x="563.16" y="370.54" width="79.71" height="264.28"/><circle class="cls-7" cx="236.5" cy="85.57" r="11.28"/><circle class="cls-7" cx="427.59" cy="89.47" r="11.28"/></g></g></svg>