<svg xmlns="http://www.w3.org/2000/svg" viewBox="0 0 465.05 485.05"><defs><style>.cls-1{fill:#068944;}.cls-2{fill:#00a651;}.cls-3{fill:#fdf170;}</style></defs><title>Asset 3</title><g id="Layer_2" data-name="Layer 2"><g id="Screen_01" data-name="Screen 01"><circle class="cls-1" cx="232.53" cy="252.53" r="232.53"/><circle class="cls-2" cx="232.53" cy="232.53" r="232.53"/><path class="cls-3" d="M227,191.28a41.44,41.44,0,1,0,41.44,41.44A41.44,41.44,0,0,0,227,191.28ZM144.12,263.8a10.39,10.39,0,0,0-10.36,10.36v31.07A20.78,20.78,0,0,0,154.48,326h31.07a10.36,10.36,0,0,0,0-20.72H164.84a10.39,10.39,0,0,1-10.36-10.36V274.16A10.39,10.39,0,0,0,144.12,263.8Zm10.36-93.23a10.39,10.39,0,0,1,10.36-10.36h20.71a10.36,10.36,0,0,0,0-20.72H154.48a20.78,20.78,0,0,0-20.72,20.72v31.07a10.36,10.36,0,1,0,20.72,0Zm145-31.08H268.43a10.36,10.36,0,0,0,0,20.72h20.71a10.39,10.39,0,0,1,10.36,10.36v20.71a10.36,10.36,0,0,0,20.72,0V160.21A20.78,20.78,0,0,0,299.5,139.49Zm0,155.38a10.39,10.39,0,0,1-10.36,10.36H268.43a10.36,10.36,0,1,0,0,20.72H299.5a20.78,20.78,0,0,0,20.72-20.72V274.16a10.36,10.36,0,1,0-20.72,0Z"/></g></g></svg>