<svg xmlns="http://www.w3.org/2000/svg" viewBox="0 0 2838.86 813.03"><defs><style>.cls-1,.cls-2{fill:#e64725;}.cls-2,.cls-3{stroke:#e64725;stroke-miterlimit:10;stroke-width:15px;}.cls-3{fill:#fff;}</style></defs><title>Wavy</title><g id="Layer_2" data-name="Layer 2"><g id="Screen_01" data-name="Screen 01"><rect class="cls-1" x="7.5" y="66.21" width="2732" height="746.82"/><path class="cls-2" d="M125.2,67.78a58.85,58.85,0,0,0-117.7,0"/><path class="cls-3" d="M125.2,64.93a58.86,58.86,0,0,0,117.71,0"/><path class="cls-2" d="M242.91,67.78a58.85,58.85,0,0,1,117.7,0"/><path class="cls-3" d="M360.61,64.93a58.86,58.86,0,0,0,117.71,0"/><path class="cls-2" d="M478.32,67.78a58.85,58.85,0,0,1,117.7,0"/><path class="cls-3" d="M596,64.93a58.85,58.85,0,0,0,117.7,0"/><path class="cls-2" d="M713.72,67.78a58.86,58.86,0,0,1,117.71,0"/><path class="cls-3" d="M831.43,64.93a58.85,58.85,0,0,0,117.7,0"/><path class="cls-2" d="M949.13,67.78a58.86,58.86,0,0,1,117.71,0"/><path class="cls-3" d="M1066.84,64.93a58.85,58.85,0,1,0,117.7,0"/><path class="cls-2" d="M1183.5,67.78a58.85,58.85,0,0,1,117.7,0"/><path class="cls-3" d="M1301.2,64.93a58.86,58.86,0,0,0,117.71,0"/><path class="cls-2" d="M1418.91,67.78a58.85,58.85,0,1,1,117.7,0"/><path class="cls-3" d="M1536.61,64.93a58.86,58.86,0,0,0,117.71,0"/><path class="cls-2" d="M1654.32,67.78a58.85,58.85,0,1,1,117.7,0"/><path class="cls-3" d="M1772,64.93a58.85,58.85,0,0,0,117.7,0"/><path class="cls-2" d="M1889.72,67.78a58.86,58.86,0,0,1,117.71,0"/><path class="cls-3" d="M2007.43,64.93a58.85,58.85,0,1,0,117.7,0"/><path class="cls-2" d="M2125.13,67.78a58.86,58.86,0,0,1,117.71,0"/><path class="cls-3" d="M2242.84,64.93a58.85,58.85,0,1,0,117.7,0"/><path class="cls-2" d="M2360.54,66.35a58.85,58.85,0,1,1,117.7,0"/><path class="cls-3" d="M2478.24,63.5a58.86,58.86,0,0,0,117.71,0"/><path class="cls-2" d="M2596,66.35a58.85,58.85,0,1,1,117.7,0"/><path class="cls-3" d="M2713.65,63.5a58.86,58.86,0,0,0,117.71,0"/></g></g></svg>